<?xml version="1.0" encoding="UTF-8" standalone="no"?>
<!-- Created with Inkscape (http://www.inkscape.org/) -->

<svg
   xmlns:dc="http://purl.org/dc/elements/1.1/"
   xmlns:cc="http://creativecommons.org/ns#"
   xmlns:rdf="http://www.w3.org/1999/02/22-rdf-syntax-ns#"
   xmlns:svg="http://www.w3.org/2000/svg"
   xmlns="http://www.w3.org/2000/svg"
   xmlns:sodipodi="http://sodipodi.sourceforge.net/DTD/sodipodi-0.dtd"
   xmlns:inkscape="http://www.inkscape.org/namespaces/inkscape"
   id="svg4136"
   version="1.1"
   inkscape:version="0.91 r13725"
   xml:space="preserve"
   width="41"
   height="40"
   viewBox="0 0 41 40"
   sodipodi:docname="GitHub-Mark Single Small.svg"><metadata
     id="metadata4142"><rdf:RDF><cc:Work
         rdf:about=""><dc:format>image/svg+xml</dc:format><dc:type
           rdf:resource="http://purl.org/dc/dcmitype/StillImage" /><dc:title /></cc:Work></rdf:RDF></metadata><defs
     id="defs4140"><clipPath
       clipPathUnits="userSpaceOnUse"
       id="clipPath4152"><path
         d="m 0,551.986 530.973,0 L 530.973,0 0,0 0,551.986 Z"
         id="path4154"
         inkscape:connector-curvature="0" /></clipPath></defs><sodipodi:namedview
     pagecolor="#ffffff"
     bordercolor="#666666"
     borderopacity="1"
     objecttolerance="10"
     gridtolerance="10"
     guidetolerance="10"
     inkscape:pageopacity="0"
     inkscape:pageshadow="2"
     inkscape:window-width="1440"
     inkscape:window-height="751"
     id="namedview4138"
     showgrid="false"
     inkscape:zoom="9.5431094"
     inkscape:cx="20.348382"
     inkscape:cy="30.295113"
     inkscape:window-x="1912"
     inkscape:window-y="-8"
     inkscape:window-maximized="1"
     inkscape:current-layer="g4144" /><g
     id="g4144"
     inkscape:groupmode="layer"
     inkscape:label="GitHub-Mark"
     transform="matrix(1.25,0,0,-1.25,0,40.000017)"><g
       id="g4156"
       transform="matrix(1.0067835,0,0,1.0070853,16.39849,32.000013)"
       style="fill:#00008b;fill-opacity:1"><path
         d="m 0,0 c -8.995,0 -16.288,-7.293 -16.288,-16.29 0,-7.197 4.667,-13.302 11.14,-15.457 0.815,-0.149 1.112,0.354 1.112,0.786 0,0.386 -0.014,1.411 -0.022,2.77 -4.531,-0.984 -5.487,2.184 -5.487,2.184 -0.741,1.881 -1.809,2.382 -1.809,2.382 -1.479,1.011 0.112,0.991 0.112,0.991 1.635,-0.116 2.495,-1.679 2.495,-1.679 1.453,-2.489 3.813,-1.77 4.741,-1.354 0.148,1.053 0.568,1.771 1.034,2.178 -3.617,0.411 -7.42,1.809 -7.42,8.051 0,1.778 0.635,3.232 1.677,4.371 -0.168,0.412 -0.727,2.068 0.159,4.311 0,0 1.368,0.438 4.48,-1.67 1.299,0.361 2.693,0.542 4.078,0.548 1.383,-0.006 2.777,-0.187 4.078,-0.548 3.11,2.108 4.475,1.67 4.475,1.67 0.889,-2.243 0.33,-3.899 0.162,-4.311 1.044,-1.139 1.675,-2.593 1.675,-4.371 0,-6.258 -3.809,-7.635 -7.438,-8.038 0.585,-0.503 1.106,-1.497 1.106,-3.017 0,-2.177 -0.02,-3.934 -0.02,-4.468 0,-0.436 0.293,-0.943 1.12,-0.784 6.468,2.159 11.131,8.26 11.131,15.455 C 16.291,-7.293 8.997,0 0,0"
         style="fill:#00008b;fill-opacity:1;fill-rule:evenodd;stroke:none"
         id="path4158"
         inkscape:connector-curvature="0" /></g><g
       id="g4204"
       transform="translate(133.2758,347.4795)"><path
         d="m 0,0 c -0.38,0.276 -0.866,0.414 -1.458,0.414 -0.24,0 -0.476,-0.024 -0.708,-0.071 -0.232,-0.049 -0.438,-0.129 -0.618,-0.24 -0.18,-0.114 -0.324,-0.263 -0.432,-0.452 -0.108,-0.187 -0.162,-0.421 -0.162,-0.701 0,-0.264 0.078,-0.478 0.234,-0.642 0.156,-0.165 0.364,-0.298 0.624,-0.402 0.26,-0.104 0.554,-0.19 0.882,-0.259 0.328,-0.067 0.662,-0.141 1.002,-0.22 0.34,-0.08 0.674,-0.175 1.002,-0.284 C 0.694,-2.964 0.988,-3.11 1.248,-3.294 1.508,-3.478 1.716,-3.71 1.872,-3.989 2.028,-4.27 2.106,-4.622 2.106,-5.046 2.106,-5.502 2.004,-5.892 1.8,-6.216 1.596,-6.54 1.334,-6.804 1.014,-7.008 0.694,-7.212 0.336,-7.36 -0.06,-7.452 -0.456,-7.544 -0.85,-7.59 -1.242,-7.59 c -0.48,0 -0.934,0.06 -1.362,0.18 -0.428,0.12 -0.804,0.302 -1.128,0.546 -0.324,0.244 -0.58,0.556 -0.768,0.936 -0.188,0.38 -0.282,0.829 -0.282,1.35 l 1.08,0 c 0,-0.361 0.07,-0.67 0.21,-0.93 0.14,-0.261 0.324,-0.474 0.552,-0.642 0.228,-0.167 0.494,-0.292 0.798,-0.372 0.304,-0.081 0.616,-0.12 0.936,-0.12 0.256,0 0.514,0.024 0.774,0.073 0.26,0.047 0.494,0.129 0.702,0.246 0.208,0.115 0.376,0.273 0.504,0.472 0.128,0.201 0.192,0.457 0.192,0.769 0,0.296 -0.078,0.536 -0.234,0.72 -0.156,0.183 -0.364,0.334 -0.624,0.45 -0.26,0.116 -0.554,0.21 -0.882,0.282 -0.328,0.072 -0.662,0.147 -1.002,0.223 -0.34,0.075 -0.674,0.163 -1.002,0.263 -0.328,0.1 -0.622,0.232 -0.882,0.396 -0.26,0.164 -0.468,0.376 -0.624,0.636 -0.156,0.259 -0.234,0.586 -0.234,0.978 0,0.432 0.088,0.806 0.264,1.122 0.176,0.316 0.41,0.575 0.702,0.78 0.292,0.204 0.624,0.356 0.996,0.456 0.372,0.1 0.754,0.15 1.146,0.15 0.44,0 0.848,-0.053 1.224,-0.156 C 0.19,1.114 0.52,0.95 0.804,0.725 1.088,0.502 1.312,0.22 1.476,-0.12 1.64,-0.46 1.73,-0.866 1.746,-1.338 l -1.08,0 C 0.602,-0.722 0.38,-0.276 0,0"
         style="fill:#176fc1;fill-opacity:1;fill-rule:nonzero;stroke:none"
         id="path4206"
         inkscape:connector-curvature="0" /></g><g
       id="g4208"
       transform="translate(137.5537,346.2851)"><path
         d="m 0,0 0,-0.912 0.024,0 c 0.464,0.705 1.132,1.057 2.004,1.057 0.384,0 0.732,-0.08 1.044,-0.241 0.312,-0.16 0.532,-0.431 0.66,-0.816 0.208,0.336 0.482,0.596 0.822,0.78 0.34,0.185 0.714,0.277 1.122,0.277 0.312,0 0.594,-0.035 0.846,-0.102 0.252,-0.068 0.468,-0.175 0.648,-0.318 0.18,-0.145 0.32,-0.33 0.42,-0.559 0.1,-0.227 0.15,-0.502 0.15,-0.822 l 0,-4.547 -1.02,0 0,4.067 c 0,0.193 -0.016,0.372 -0.048,0.54 -0.032,0.168 -0.092,0.315 -0.18,0.438 -0.088,0.125 -0.21,0.223 -0.366,0.295 -0.156,0.072 -0.358,0.107 -0.606,0.107 -0.504,0 -0.9,-0.143 -1.188,-0.431 C 4.044,-1.476 3.9,-1.859 3.9,-2.34 l 0,-3.863 -1.02,0 0,4.067 c 0,0.201 -0.018,0.384 -0.054,0.552 -0.036,0.168 -0.098,0.314 -0.186,0.438 -0.088,0.125 -0.206,0.22 -0.354,0.289 -0.148,0.068 -0.338,0.101 -0.57,0.101 -0.296,0 -0.55,-0.059 -0.762,-0.179 C 0.742,-1.056 0.57,-1.199 0.438,-1.367 0.306,-1.535 0.21,-1.709 0.15,-1.89 0.09,-2.07 0.06,-2.22 0.06,-2.34 l 0,-3.863 -1.02,0 L -0.96,0 0,0 Z"
         style="fill:#176fc1;fill-opacity:1;fill-rule:nonzero;stroke:none"
         id="path4210"
         inkscape:connector-curvature="0" /></g><g
       id="g4212"
       transform="translate(150.1655,343.0761)"><path
         d="m 0,0 c -0.208,-0.045 -0.426,-0.08 -0.654,-0.108 -0.228,-0.029 -0.458,-0.06 -0.69,-0.097 -0.232,-0.035 -0.44,-0.094 -0.624,-0.174 -0.184,-0.08 -0.334,-0.193 -0.45,-0.342 -0.116,-0.148 -0.174,-0.349 -0.174,-0.605 0,-0.168 0.034,-0.311 0.102,-0.426 0.068,-0.117 0.156,-0.211 0.264,-0.283 0.108,-0.071 0.236,-0.123 0.384,-0.155 0.148,-0.033 0.298,-0.048 0.45,-0.048 0.336,0 0.624,0.045 0.864,0.137 0.24,0.092 0.436,0.208 0.588,0.349 0.152,0.139 0.264,0.291 0.336,0.455 0.072,0.164 0.108,0.318 0.108,0.463 l 0,1.043 C 0.376,0.113 0.208,0.043 0,0 m 1.428,-3.127 c -0.264,0 -0.474,0.074 -0.63,0.223 -0.156,0.147 -0.234,0.389 -0.234,0.725 -0.28,-0.336 -0.606,-0.578 -0.978,-0.725 -0.372,-0.149 -0.774,-0.223 -1.206,-0.223 -0.28,0 -0.544,0.03 -0.792,0.09 -0.248,0.06 -0.466,0.16 -0.654,0.301 -0.188,0.139 -0.336,0.319 -0.444,0.539 -0.108,0.22 -0.162,0.486 -0.162,0.799 0,0.351 0.06,0.639 0.18,0.863 0.12,0.224 0.278,0.406 0.474,0.547 0.196,0.139 0.42,0.246 0.672,0.318 0.252,0.071 0.51,0.131 0.774,0.18 0.28,0.055 0.546,0.097 0.798,0.125 0.252,0.028 0.474,0.068 0.666,0.121 0.192,0.051 0.344,0.127 0.456,0.227 0.112,0.101 0.168,0.246 0.168,0.439 0,0.223 -0.042,0.403 -0.126,0.539 -0.084,0.137 -0.192,0.24 -0.324,0.312 -0.132,0.073 -0.28,0.121 -0.444,0.145 -0.164,0.023 -0.326,0.035 -0.486,0.035 -0.432,0 -0.792,-0.082 -1.08,-0.246 -0.288,-0.164 -0.444,-0.474 -0.468,-0.93 l -1.02,0 c 0.016,0.384 0.096,0.708 0.24,0.973 0.144,0.264 0.336,0.478 0.576,0.642 0.24,0.163 0.516,0.282 0.828,0.354 0.312,0.071 0.64,0.108 0.984,0.108 0.28,0 0.558,-0.02 0.834,-0.061 C 0.306,3.254 0.556,3.172 0.78,3.047 1.004,2.924 1.184,2.749 1.32,2.525 1.456,2.301 1.524,2.01 1.524,1.649 l 0,-3.192 c 0,-0.24 0.014,-0.416 0.042,-0.527 0.028,-0.113 0.122,-0.168 0.282,-0.168 0.088,0 0.192,0.019 0.312,0.059 l 0,-0.792 C 1.984,-3.074 1.74,-3.127 1.428,-3.127"
         style="fill:#176fc1;fill-opacity:1;fill-rule:nonzero;stroke:none"
         id="path4214"
         inkscape:connector-curvature="0" /></g><path
       d="m 154.354,340.082 -1.02,0 0,8.567 1.02,0 0,-8.567 z"
       style="fill:#176fc1;fill-opacity:1;fill-rule:nonzero;stroke:none"
       id="path4216"
       inkscape:connector-curvature="0" /><path
       d="m 157.017,340.082 -1.02,0 0,8.567 1.02,0 0,-8.567 z"
       style="fill:#176fc1;fill-opacity:1;fill-rule:nonzero;stroke:none"
       id="path4218"
       inkscape:connector-curvature="0" /><g
       id="g4220"
       transform="translate(101.854,330.9863)"><path
         d="m 0,0 0,0.899 1.044,0 0,0.924 c 0,0.504 0.146,0.886 0.438,1.146 0.292,0.26 0.718,0.39 1.278,0.39 0.096,0 0.206,-0.007 0.33,-0.023 C 3.214,3.319 3.324,3.295 3.42,3.264 l 0,-0.889 C 3.332,2.407 3.236,2.43 3.132,2.441 3.028,2.453 2.932,2.459 2.844,2.459 2.596,2.459 2.404,2.411 2.268,2.315 2.132,2.219 2.064,2.035 2.064,1.764 l 0,-0.865 1.2,0 0,-0.899 -1.2,0 0,-5.305 -1.02,0 L 1.044,0 0,0 Z"
         style="fill:#176fc1;fill-opacity:1;fill-rule:nonzero;stroke:none"
         id="path4222"
         inkscape:connector-curvature="0" /></g><g
       id="g4224"
       transform="translate(106.9238,327.7754)"><path
         d="m 0,0 c 0.1,-0.292 0.238,-0.535 0.414,-0.732 0.176,-0.196 0.382,-0.346 0.618,-0.45 0.236,-0.103 0.486,-0.156 0.75,-0.156 0.264,0 0.514,0.053 0.75,0.156 0.236,0.104 0.442,0.254 0.618,0.45 0.176,0.197 0.314,0.44 0.414,0.732 0.1,0.292 0.15,0.626 0.15,1.002 0,0.377 -0.05,0.71 -0.15,1.002 C 3.464,2.297 3.326,2.542 3.15,2.742 2.974,2.941 2.768,3.094 2.532,3.198 2.296,3.303 2.046,3.355 1.782,3.355 1.518,3.355 1.268,3.303 1.032,3.198 0.796,3.094 0.59,2.941 0.414,2.742 0.238,2.542 0.1,2.297 0,2.004 -0.1,1.712 -0.15,1.379 -0.15,1.002 -0.15,0.626 -0.1,0.292 0,0 m -1.038,2.28 c 0.128,0.396 0.32,0.74 0.576,1.033 0.256,0.291 0.572,0.521 0.948,0.689 0.376,0.168 0.808,0.252 1.296,0.252 0.496,0 0.93,-0.084 1.302,-0.252 C 3.456,3.834 3.77,3.604 4.026,3.313 4.282,3.02 4.474,2.676 4.602,2.28 4.73,1.885 4.794,1.458 4.794,1.002 4.794,0.547 4.73,0.122 4.602,-0.27 4.474,-0.662 4.282,-1.004 4.026,-1.296 3.77,-1.588 3.456,-1.816 3.084,-1.98 2.712,-2.144 2.278,-2.226 1.782,-2.226 c -0.488,0 -0.92,0.082 -1.296,0.246 -0.376,0.164 -0.692,0.392 -0.948,0.684 -0.256,0.292 -0.448,0.634 -0.576,1.026 -0.128,0.392 -0.192,0.817 -0.192,1.272 0,0.456 0.064,0.883 0.192,1.278"
         style="fill:#176fc1;fill-opacity:1;fill-rule:nonzero;stroke:none"
         id="path4226"
         inkscape:connector-curvature="0" /></g><g
       id="g4228"
       transform="translate(113.8417,331.8857)"><path
         d="m 0,0 0,-1.308 0.024,0 c 0.248,0.504 0.552,0.875 0.912,1.116 0.36,0.24 0.816,0.351 1.368,0.336 l 0,-1.081 C 1.896,-0.937 1.548,-0.992 1.26,-1.105 0.972,-1.216 0.74,-1.38 0.564,-1.597 0.388,-1.812 0.26,-2.074 0.18,-2.382 0.1,-2.69 0.06,-3.044 0.06,-3.444 l 0,-2.76 -1.02,0 L -0.96,0 0,0 Z"
         style="fill:#176fc1;fill-opacity:1;fill-rule:nonzero;stroke:none"
         id="path4230"
         inkscape:connector-curvature="0" /></g><g
       id="g4232"
       transform="translate(122.7333,325.6816)"><path
         d="m 0,0 0,6.096 -2.208,0 0,0.816 c 0.288,0 0.568,0.022 0.84,0.066 0.272,0.043 0.518,0.125 0.738,0.247 0.22,0.119 0.406,0.283 0.558,0.491 0.152,0.208 0.256,0.472 0.312,0.792 l 0.78,0 L 1.02,0 0,0 Z"
         style="fill:#176fc1;fill-opacity:1;fill-rule:nonzero;stroke:none"
         id="path4234"
         inkscape:connector-curvature="0" /></g><g
       id="g4236"
       transform="translate(128.8295,330.1035)"><path
         d="m 0,0 c -0.216,-0.1 -0.4,-0.236 -0.552,-0.408 -0.152,-0.172 -0.266,-0.376 -0.341,-0.611 -0.077,-0.237 -0.115,-0.487 -0.115,-0.75 0,-0.264 0.04,-0.512 0.12,-0.745 0.08,-0.232 0.194,-0.431 0.342,-0.599 0.148,-0.168 0.332,-0.303 0.552,-0.403 0.22,-0.1 0.47,-0.15 0.75,-0.15 0.28,0 0.526,0.05 0.738,0.15 0.212,0.1 0.39,0.239 0.534,0.414 0.144,0.176 0.254,0.378 0.33,0.606 0.076,0.228 0.114,0.467 0.114,0.715 0,0.263 -0.034,0.513 -0.102,0.75 C 2.302,-0.796 2.196,-0.592 2.052,-0.42 1.908,-0.248 1.728,-0.109 1.512,-0.006 1.296,0.098 1.044,0.15 0.756,0.15 0.468,0.15 0.216,0.1 0,0 M 1.848,2.838 C 1.6,3.07 1.272,3.186 0.864,3.186 0.432,3.186 0.084,3.08 -0.18,2.868 -0.444,2.656 -0.65,2.389 -0.798,2.064 -0.946,1.74 -1.048,1.391 -1.104,1.014 -1.16,0.639 -1.192,0.286 -1.2,-0.042 l 0.024,-0.024 c 0.24,0.392 0.538,0.675 0.894,0.852 0.356,0.176 0.766,0.265 1.23,0.265 0.408,0 0.774,-0.07 1.098,-0.211 C 2.37,0.7 2.642,0.506 2.862,0.258 3.082,0.01 3.253,-0.281 3.372,-0.617 3.492,-0.954 3.552,-1.318 3.552,-1.71 3.552,-2.021 3.504,-2.346 3.408,-2.682 3.312,-3.018 3.154,-3.324 2.934,-3.6 2.714,-3.876 2.422,-4.103 2.058,-4.283 1.694,-4.464 1.244,-4.554 0.708,-4.554 c -0.632,0 -1.14,0.128 -1.524,0.384 -0.384,0.256 -0.68,0.584 -0.888,0.984 -0.208,0.4 -0.346,0.84 -0.414,1.321 -0.068,0.479 -0.102,0.943 -0.102,1.391 0,0.583 0.05,1.15 0.15,1.699 0.1,0.547 0.27,1.033 0.511,1.457 0.239,0.424 0.559,0.763 0.959,1.02 0.4,0.256 0.904,0.384 1.512,0.384 0.704,0 1.264,-0.186 1.68,-0.558 0.416,-0.372 0.656,-0.91 0.72,-1.614 l -1.02,0 C 2.244,2.299 2.096,2.606 1.848,2.838"
         style="fill:#176fc1;fill-opacity:1;fill-rule:nonzero;stroke:none"
         id="path4238"
         inkscape:connector-curvature="0" /></g><g
       id="g4240"
       transform="translate(138.3159,329.6836)"><path
         d="m 0,0 c -0.076,0.275 -0.192,0.521 -0.348,0.738 -0.156,0.216 -0.356,0.388 -0.6,0.516 -0.244,0.128 -0.531,0.192 -0.858,0.192 -0.344,0 -0.636,-0.068 -0.876,-0.204 -0.24,-0.137 -0.436,-0.314 -0.588,-0.534 -0.152,-0.22 -0.262,-0.47 -0.33,-0.75 -0.069,-0.28 -0.102,-0.563 -0.102,-0.853 0,-0.303 0.036,-0.597 0.108,-0.88 0.071,-0.286 0.186,-0.536 0.341,-0.75 0.157,-0.217 0.358,-0.391 0.607,-0.523 0.247,-0.132 0.548,-0.198 0.9,-0.198 0.351,0 0.646,0.068 0.882,0.204 0.236,0.136 0.425,0.315 0.569,0.54 0.145,0.224 0.249,0.481 0.312,0.768 0.064,0.289 0.097,0.584 0.097,0.888 C 0.114,-0.559 0.076,-0.275 0,0 m -3.666,2.202 0,-0.841 0.024,0 c 0.168,0.345 0.431,0.595 0.792,0.75 0.36,0.157 0.756,0.235 1.188,0.235 0.48,0 0.898,-0.088 1.254,-0.264 C -0.052,1.906 0.244,1.668 0.48,1.368 0.716,1.068 0.893,0.722 1.014,0.33 c 0.12,-0.392 0.18,-0.809 0.18,-1.248 0,-0.439 -0.058,-0.855 -0.175,-1.248 C 0.904,-2.559 0.727,-2.9 0.492,-3.191 0.256,-3.484 -0.041,-3.714 -0.396,-3.882 -0.753,-4.05 -1.167,-4.134 -1.638,-4.134 c -0.153,0 -0.323,0.017 -0.511,0.048 -0.188,0.032 -0.374,0.084 -0.557,0.156 -0.184,0.073 -0.359,0.17 -0.522,0.294 -0.164,0.124 -0.302,0.279 -0.414,0.462 l -0.024,0 0,-3.191 -1.02,0 0,8.567 1.02,0 z"
         style="fill:#176fc1;fill-opacity:1;fill-rule:nonzero;stroke:none"
         id="path4242"
         inkscape:connector-curvature="0" /></g><g
       id="g4244"
       transform="translate(140.2172,331.8857)"><path
         d="M 0,0 1.308,0 2.796,-2.172 4.344,0 5.568,0 3.432,-2.856 l 2.4,-3.348 -1.308,0 -1.728,2.568 -1.728,-2.568 -1.236,0 L 2.16,-2.94 0,0 Z"
         style="fill:#176fc1;fill-opacity:1;fill-rule:nonzero;stroke:none"
         id="path4246"
         inkscape:connector-curvature="0" /></g><path
       d="m 150.225,328.537 -3.468,0 0,0.961 3.468,0 0,-0.961 z"
       style="fill:#176fc1;fill-opacity:1;fill-rule:nonzero;stroke:none"
       id="path4248"
       inkscape:connector-curvature="0" /><g
       id="g4250"
       transform="translate(154.0771,325.6816)"><path
         d="m 0,0 0,6.096 -2.208,0 0,0.816 c 0.288,0 0.568,0.022 0.84,0.066 0.272,0.043 0.518,0.125 0.738,0.247 0.22,0.119 0.406,0.283 0.558,0.491 0.152,0.208 0.256,0.472 0.312,0.792 l 0.78,0 L 1.02,0 0,0 Z"
         style="fill:#176fc1;fill-opacity:1;fill-rule:nonzero;stroke:none"
         id="path4252"
         inkscape:connector-curvature="0" /></g><g
       id="g4254"
       transform="translate(158.1572,332.3769)"><path
         d="m 0,0 c 0.112,0.369 0.286,0.686 0.522,0.955 0.236,0.268 0.53,0.478 0.882,0.629 0.352,0.152 0.752,0.228 1.2,0.228 0.368,0 0.714,-0.053 1.038,-0.162 C 3.966,1.543 4.248,1.387 4.488,1.183 4.728,0.979 4.918,0.725 5.058,0.421 5.198,0.117 5.268,-0.235 5.268,-0.635 5.268,-1.012 5.21,-1.344 5.094,-1.631 4.977,-1.92 4.824,-2.178 4.632,-2.405 4.44,-2.633 4.22,-2.84 3.972,-3.023 3.724,-3.207 3.468,-3.383 3.204,-3.551 2.94,-3.711 2.676,-3.869 2.412,-4.025 2.148,-4.182 1.906,-4.348 1.686,-4.523 1.466,-4.699 1.278,-4.889 1.122,-5.094 0.966,-5.297 0.864,-5.531 0.816,-5.795 l 4.368,0 0,-0.9 -5.556,0 c 0.04,0.504 0.13,0.933 0.27,1.29 0.14,0.356 0.318,0.666 0.534,0.93 0.216,0.264 0.46,0.496 0.732,0.696 0.272,0.199 0.556,0.387 0.852,0.564 0.36,0.224 0.676,0.43 0.948,0.617 0.272,0.188 0.498,0.379 0.678,0.571 0.18,0.191 0.316,0.4 0.408,0.624 0.092,0.223 0.138,0.483 0.138,0.78 0,0.231 -0.045,0.441 -0.132,0.63 C 3.968,0.194 3.85,0.357 3.702,0.492 3.554,0.629 3.38,0.732 3.18,0.805 2.98,0.877 2.768,0.912 2.544,0.912 2.247,0.912 1.994,0.851 1.782,0.727 1.57,0.603 1.396,0.441 1.26,0.24 1.124,0.041 1.026,-0.185 0.966,-0.437 0.906,-0.689 0.88,-0.943 0.888,-1.199 l -1.02,0 C -0.156,-0.768 -0.112,-0.367 0,0"
         style="fill:#176fc1;fill-opacity:1;fill-rule:nonzero;stroke:none"
         id="path4256"
         inkscape:connector-curvature="0" /></g><g
       id="g4258"
       transform="translate(165.7832,328.7949)"><path
         d="m 0,0 c 0.02,-0.395 0.084,-0.768 0.192,-1.115 0.108,-0.348 0.282,-0.643 0.522,-0.882 0.24,-0.24 0.576,-0.36 1.008,-0.36 0.432,0 0.768,0.12 1.008,0.36 0.24,0.239 0.414,0.534 0.522,0.882 0.108,0.347 0.172,0.72 0.192,1.115 0.02,0.397 0.03,0.755 0.03,1.074 0,0.209 -0.002,0.439 -0.006,0.691 C 3.464,2.017 3.444,2.268 3.408,2.521 3.372,2.773 3.32,3.018 3.252,3.259 3.184,3.498 3.084,3.709 2.952,3.889 2.82,4.068 2.654,4.215 2.454,4.326 2.254,4.439 2.01,4.494 1.722,4.494 1.434,4.494 1.19,4.439 0.99,4.326 0.79,4.215 0.624,4.068 0.492,3.889 0.36,3.709 0.26,3.498 0.192,3.259 0.124,3.018 0.072,2.773 0.036,2.521 0,2.268 -0.02,2.017 -0.024,1.765 -0.028,1.513 -0.03,1.283 -0.03,1.074 -0.03,0.755 -0.02,0.397 0,0 m -1.086,2.035 c 0.016,0.336 0.056,0.664 0.12,0.983 0.064,0.32 0.156,0.625 0.276,0.913 0.12,0.288 0.284,0.54 0.492,0.756 C 0.01,4.902 0.272,5.074 0.588,5.203 0.904,5.33 1.282,5.395 1.722,5.395 2.162,5.395 2.54,5.33 2.856,5.203 3.172,5.074 3.434,4.902 3.642,4.687 3.85,4.471 4.014,4.219 4.134,3.931 4.254,3.643 4.346,3.338 4.41,3.018 4.474,2.699 4.514,2.371 4.53,2.035 4.546,1.699 4.554,1.375 4.554,1.062 4.554,0.75 4.546,0.427 4.53,0.091 4.514,-0.245 4.474,-0.573 4.41,-0.893 4.346,-1.213 4.254,-1.516 4.134,-1.799 4.014,-2.084 3.85,-2.334 3.642,-2.549 3.434,-2.766 3.174,-2.936 2.862,-3.059 2.55,-3.184 2.17,-3.245 1.722,-3.245 c -0.44,0 -0.818,0.061 -1.134,0.186 -0.316,0.123 -0.578,0.293 -0.786,0.51 -0.208,0.215 -0.372,0.465 -0.492,0.75 -0.12,0.283 -0.212,0.586 -0.276,0.906 -0.064,0.32 -0.104,0.648 -0.12,0.984 -0.016,0.336 -0.024,0.659 -0.024,0.971 0,0.313 0.008,0.637 0.024,0.973"
         style="fill:#176fc1;fill-opacity:1;fill-rule:nonzero;stroke:none"
         id="path4260"
         inkscape:connector-curvature="0" /></g><g
       id="g4262"
       transform="translate(176.3315,329.6836)"><path
         d="m 0,0 c -0.076,0.275 -0.192,0.521 -0.348,0.738 -0.156,0.216 -0.356,0.388 -0.6,0.516 -0.244,0.128 -0.531,0.192 -0.858,0.192 -0.344,0 -0.636,-0.068 -0.876,-0.204 -0.24,-0.137 -0.436,-0.314 -0.588,-0.534 -0.152,-0.22 -0.262,-0.47 -0.33,-0.75 -0.069,-0.28 -0.102,-0.563 -0.102,-0.853 0,-0.303 0.036,-0.597 0.108,-0.88 0.071,-0.286 0.186,-0.536 0.342,-0.75 0.156,-0.217 0.357,-0.391 0.606,-0.523 0.248,-0.132 0.548,-0.198 0.9,-0.198 0.351,0 0.646,0.068 0.882,0.204 0.236,0.136 0.425,0.315 0.57,0.54 0.144,0.224 0.248,0.481 0.312,0.768 0.063,0.289 0.096,0.584 0.096,0.888 C 0.114,-0.559 0.076,-0.275 0,0 m -3.666,2.202 0,-0.841 0.024,0 c 0.168,0.345 0.431,0.595 0.792,0.75 0.36,0.157 0.756,0.235 1.188,0.235 0.48,0 0.898,-0.088 1.254,-0.264 C -0.052,1.906 0.244,1.668 0.48,1.368 0.716,1.068 0.893,0.722 1.014,0.33 1.134,-0.062 1.194,-0.479 1.194,-0.918 1.194,-1.357 1.136,-1.773 1.02,-2.166 0.904,-2.559 0.727,-2.9 0.492,-3.191 0.256,-3.484 -0.04,-3.714 -0.396,-3.882 -0.752,-4.05 -1.167,-4.134 -1.638,-4.134 c -0.152,0 -0.323,0.017 -0.51,0.048 -0.188,0.032 -0.375,0.084 -0.558,0.156 -0.184,0.073 -0.358,0.17 -0.522,0.294 -0.164,0.124 -0.302,0.279 -0.414,0.462 l -0.024,0 0,-3.191 -1.02,0 0,8.567 1.02,0 z"
         style="fill:#176fc1;fill-opacity:1;fill-rule:nonzero;stroke:none"
         id="path4264"
         inkscape:connector-curvature="0" /></g><g
       id="g4266"
       transform="translate(178.2329,331.8857)"><path
         d="M 0,0 1.308,0 2.796,-2.172 4.344,0 5.568,0 3.432,-2.856 l 2.4,-3.348 -1.308,0 -1.728,2.568 -1.728,-2.568 -1.236,0 L 2.16,-2.94 0,0 Z"
         style="fill:#176fc1;fill-opacity:1;fill-rule:nonzero;stroke:none"
         id="path4268"
         inkscape:connector-curvature="0" /></g></g></svg>